<?xml version="1.0" encoding="utf-8"?>
<!-- Generator: Adobe Illustrator 27.0.0, SVG Export Plug-In . SVG Version: 6.00 Build 0)  -->
<svg version="1.1" id="Layer_1" xmlns="http://www.w3.org/2000/svg" xmlns:xlink="http://www.w3.org/1999/xlink" x="0px" y="0px"
	 viewBox="0 0 842 681" style="enable-background:new 0 0 842 681;" xml:space="preserve">
<style type="text/css">
	.st0{fill:#C5A165;}
	.st1{fill:#15482F;}
	.st2{fill:#C6A269;}
	.st3{fill:#C6A167;}
	.st4{fill:#14472F;}
	.st5{fill:#C4A065;}
	.st6{fill:#C6A36C;}
	.st7{fill:#14492F;}
	.st8{fill:#C9A66D;}
	.st9{fill:#154A30;}
	.st10{fill:#C9A46A;}
</style>
<g>
	<path class="st0" d="M381,46c6.6-13,19.9-22.4,34.5-23.9c-10.9,5.3-19.6,15.5-21.8,27.6c-3.3,14.8,3.8,30.9,16.4,39.1
		c8.6,5.6,19.6,7.4,29.6,4.9c7.9-1.8,15-6.4,20.7-12.1c-5.2,16.7-22.2,28-39.4,28.6c-4.1-0.1-8.2-0.3-12.2-1.2
		c-12.1-3.5-22.8-12.1-28.4-23.5C374.1,73.3,374.7,58.1,381,46z"/>
</g>
<g>
	<path class="st1" d="M408.8,109.1c4,0.8,8.1,1,12.2,1.2c0,12.9,0.8,25.9,0.6,38.8c5.7,2.6,10.4,7.6,11.5,14
		c1.7,7.4-1.7,15.1-7.4,19.8c4.5,14.6,13.7,27.4,25.1,37.4c12.5,11.5,26.5,21.1,41.3,29.4c32.6,18.9,66.3,36.6,95.2,61
		c13.7,11.6,26.5,24.3,37.8,38.4c10,13.1,19.2,26.9,26.2,41.8c13.4,28.1,19.6,59.7,18.2,90.8c-8-0.2-16.1-0.2-24.2,0
		c-0.5-19.8-4.4-39.4-11.2-57.9c-11.8-33.1-34.1-61.6-60.4-84.4c-27-23.9-58.7-41.5-90.2-58.8c-17.9-10.1-35.6-21.2-50.1-35.9
		c-7.4-7.3-13.3-15.8-18.4-24.8c-7.2,15.8-19.6,28.4-32.8,39.3c-27.7,22.5-60.3,37.8-88.9,59c-15.4,11-29.5,23.9-42,38.1
		c-10,11.6-19.2,24.1-26.1,37.9c-9.4,18-15.3,37.8-18.7,57.8c-3.6,22.4-2.3,45.4,3.1,67.5c4.4,20.3,12.6,39.5,22.9,57.5
		c-13.7,3.2-27.7,4.5-41.6,6c-4.4-7.7-7.5-16-10.7-24.2c-15.1-38.8-20.3-81.9-12-122.8c3.8-18.4,10.1-36.4,19-53
		c8.8-17,20.6-32.3,33.7-46.2c15.3-16.2,32.4-30.7,50.7-43.5c30.4-21,63.2-38.1,93-59.8c16.1-12.2,31.4-26.9,38.9-46.1
		c0.5-1.8,2.4-4.5,0.1-5.9c-6.8-5.3-9-15.4-5.1-23.1c1.8-4.3,6-6.8,9.3-9.7C408.1,135.6,408.2,122.3,408.8,109.1z"/>
</g>
<g>
	<path class="st2" d="M414.3,321.2c2.8-1.7,7.1,0.5,7.1,3.8c0.1,7.7,0,15.4,0,23.1c0.3,2.6-1.8,5.2-4.4,5.4c-3,0.3-5.8-2.5-5.4-5.5
		c0.1-7.7,0-15.4,0.1-23C411.6,323.3,412.9,322,414.3,321.2z"/>
</g>
<g>
	<path class="st3" d="M504.3,344.2c3.6-1.7,8.5,2.8,6.4,6.5c-2.7,5.9-6.2,11.3-8.8,17.2c-1.1,2.1-1.8,4.7-4,6
		c-2.6,1.6-6-0.2-7.3-2.6c-1-1.9,0.1-3.9,0.9-5.6c3-5.9,6.3-11.7,9.5-17.6C501.9,346.6,502.6,344.9,504.3,344.2z"/>
</g>
<g>
	<g>
		<path class="st4" d="M429.7,388.9c2.1-4.1,4.2-8.2,6.4-12.3c0.1,6.5,0.2,13.2-1.5,19.5c-3.6,13.5-9.1,26.3-14.1,39.3
			c-9.5,23.8-18.8,47.6-28.8,71.1c3.4,5.5,5.6,12.4,2.8,18.6c-2.1,6.9-9,11.3-16,11.6c-5-0.2-10.1-1.8-13.8-5.4
			c-4.2-4.2-6.7-10.4-5.2-16.3c1.5-7.4,7.9-13.5,15.5-14.4C392.9,463.3,411.4,426.1,429.7,388.9z M374.4,510.6
			c-5.5,2.2-6.8,10.4-2.2,14.2c4.2,4.2,12.2,1.8,13.7-4C388.1,514.4,380.6,507.8,374.4,510.6z"/>
	</g>
</g>
<g>
	<path class="st5" d="M567.2,400.3c3.8-2.2,8.8,2.8,6.8,6.6c-1.3,2.7-4,4.1-6.2,5.8c-4.1,2.8-7.8,6.2-12.1,8.9
		c-3.6,2.5-8.6-1.8-7.7-5.7c0.2-2.9,3.1-4.3,5.2-5.8C558,407.1,562.3,403.2,567.2,400.3z"/>
</g>
<g>
	<path class="st6" d="M596.4,476.6c1.5-0.2,3-0.5,4.5-0.4c3.5,0.7,4.2,6.1,1,7.8c-3.5,1.3-7.3,1.3-10.9,2c-4.7,0.5-9.3,1.8-14,1.9
		c-3.8-0.9-4.3-7.1-0.3-8C583.2,478.4,589.9,477.7,596.4,476.6z"/>
</g>
<g>
	<path class="st7" d="M777.4,499.6c18.8-5,39.6,8.4,43.4,27.4c4.2,17.1-5.9,36.3-22.6,42.2c-15.8,6.8-35.5-1-43.8-15.8
		c-5-8.2-5.9-18.5-3.7-27.7C754.3,513.2,764.5,502.5,777.4,499.6z"/>
</g>
<g>
	<path class="st8" d="M374.4,510.6c6.2-2.8,13.7,3.8,11.4,10.2c-1.4,5.7-9.4,8.2-13.7,4C367.6,521,368.9,512.8,374.4,510.6z"/>
</g>
<g>
	<path class="st9" d="M567.9,529.5c23.5-4.4,47.2-6.9,71-8.1c19.1-1.3,38.2-0.1,57.2,1.5c9.9,0.9,19.7,2,29.5,3.7
		c3.2,0.4,5.8,3.2,5.9,6.4c-0.3,3.6-4.3,5.3-7.5,4.9c-36.8-2-73.8,1-110.1,7.2c-40.4,6.5-79.9,17.2-118.8,29.9
		c-42.9,14-85,30-128.1,43.3c-39.9,12.2-80.7,22-122.2,27.4c-48.8,6.2-98.7,6.2-147-3.7c-29.6-6.3-58.6-16.5-83.9-33.4
		c-0.3-0.4-1-1.3-1.4-1.7c9.2,3.5,18.8,5.5,28.3,8c26.7,5.9,53.8,10,81,11.6c21.4,0.9,42.8,1,64.1-0.8c45.3-3.9,90.2-11.8,134-24
		c39.2-10.2,77-24.7,115.4-37.2C478.9,550.2,522.8,537.1,567.9,529.5z"/>
</g>
<g>
	<path class="st10" d="M364.7,531.4c3.6,3.6,8.8,5.2,13.8,5.4c-2.3,6-4.2,12.2-6.4,18.2c-0.4,1.8-2.7,1.2-4,1.3
		c-4.3-0.1-8.6-2.1-11.3-5.4C358.2,544,362,537.9,364.7,531.4z"/>
</g>
</svg>
